<?xml version="1.0" encoding="UTF-8" standalone="no"?>
<!DOCTYPE svg PUBLIC "-//W3C//DTD SVG 1.1//EN"
 "http://www.w3.org/Graphics/SVG/1.1/DTD/svg11.dtd">
<!-- Generated by graphviz version 2.43.0 (0)
 -->
<!-- Title: G Pages: 1 -->
<svg width="285pt" height="364pt"
 viewBox="0.00 0.00 284.63 364.13" xmlns="http://www.w3.org/2000/svg" xmlns:xlink="http://www.w3.org/1999/xlink">
<g id="graph0" class="graph" transform="scale(1 1) rotate(0) translate(4 360.13)">
<title>G</title><style>.edge>path:hover{stroke-width:8}</style>
<polygon fill="white" stroke="transparent" points="-4,4 -4,-360.13 280.63,-360.13 280.63,4 -4,4"/>
<!-- calm_calatheas -->
<g id="node1" class="node">
<title>calm_calatheas</title><style>.edge>path:hover{stroke-width:8}</style>
<ellipse fill="#b83d3d" stroke="black" cx="54.75" cy="-21.21" rx="54.99" ry="18"/>
<text text-anchor="middle" x="54.75" y="-18.71" font-family="Helvetica,sans-Serif" font-size="10.00" fill="#ffffff">calm_calatheas</text>
</g>
<!-- calm_calatheas___main__ -->
<g id="node2" class="node">
<title>calm_calatheas___main__</title><style>.edge>path:hover{stroke-width:8}</style>
<ellipse fill="#a44646" stroke="black" cx="208.75" cy="-21.21" rx="67.76" ry="21.43"/>
<text text-anchor="middle" x="208.75" y="-24.21" font-family="Helvetica,sans-Serif" font-size="10.00" fill="#ffffff">calm_calatheas.</text>
<text text-anchor="middle" x="208.75" y="-13.21" font-family="Helvetica,sans-Serif" font-size="10.00" fill="#ffffff">__main__</text>
</g>
<!-- calm_calatheas_app -->
<g id="node3" class="node">
<title>calm_calatheas_app</title><style>.edge>path:hover{stroke-width:8}</style>
<ellipse fill="#c43131" stroke="black" cx="125.75" cy="-99.64" rx="67.76" ry="21.43"/>
<text text-anchor="middle" x="125.75" y="-102.64" font-family="Helvetica,sans-Serif" font-size="10.00" fill="#ffffff">calm_calatheas.</text>
<text text-anchor="middle" x="125.75" y="-91.64" font-family="Helvetica,sans-Serif" font-size="10.00" fill="#ffffff">app</text>
</g>
<!-- calm_calatheas_app&#45;&gt;calm_calatheas -->
<g id="edge1" class="edge">
<title>calm_calatheas_app&#45;&gt;calm_calatheas</title><style>.edge>path:hover{stroke-width:8}</style>
<path fill="none" stroke="black" d="M107.46,-78.96C98.14,-68.92 86.72,-56.64 76.9,-46.06"/>
<polygon fill="#c43131" stroke="black" points="79.46,-43.67 70.09,-38.73 74.33,-48.44 79.46,-43.67"/>
</g>
<!-- calm_calatheas_app&#45;&gt;calm_calatheas___main__ -->
<g id="edge2" class="edge">
<title>calm_calatheas_app&#45;&gt;calm_calatheas___main__</title><style>.edge>path:hover{stroke-width:8}</style>
<path fill="none" stroke="black" d="M146.69,-79.35C156.91,-69.94 169.36,-58.48 180.42,-48.3"/>
<polygon fill="#c43131" stroke="black" points="182.82,-50.84 187.81,-41.49 178.08,-45.69 182.82,-50.84"/>
</g>
<!-- calm_calatheas_logger -->
<g id="node4" class="node">
<title>calm_calatheas_logger</title><style>.edge>path:hover{stroke-width:8}</style>
<ellipse fill="#c04040" stroke="black" cx="125.75" cy="-256.49" rx="67.76" ry="21.43"/>
<text text-anchor="middle" x="125.75" y="-259.49" font-family="Helvetica,sans-Serif" font-size="10.00" fill="#ffffff">calm_calatheas.</text>
<text text-anchor="middle" x="125.75" y="-248.49" font-family="Helvetica,sans-Serif" font-size="10.00" fill="#ffffff">logger</text>
</g>
<!-- calm_calatheas_model -->
<g id="node5" class="node">
<title>calm_calatheas_model</title><style>.edge>path:hover{stroke-width:8}</style>
<ellipse fill="#c04040" stroke="black" cx="125.75" cy="-178.07" rx="67.76" ry="21.43"/>
<text text-anchor="middle" x="125.75" y="-181.07" font-family="Helvetica,sans-Serif" font-size="10.00" fill="#ffffff">calm_calatheas.</text>
<text text-anchor="middle" x="125.75" y="-170.07" font-family="Helvetica,sans-Serif" font-size="10.00" fill="#ffffff">model</text>
</g>
<!-- calm_calatheas_logger&#45;&gt;calm_calatheas_model -->
<g id="edge3" class="edge">
<title>calm_calatheas_logger&#45;&gt;calm_calatheas_model</title><style>.edge>path:hover{stroke-width:8}</style>
<path fill="none" stroke="black" d="M125.75,-235.01C125.75,-227.15 125.75,-218.01 125.75,-209.42"/>
<polygon fill="#c04040" stroke="black" points="129.25,-209.34 125.75,-199.34 122.25,-209.34 129.25,-209.34"/>
</g>
<!-- calm_calatheas_model&#45;&gt;calm_calatheas_app -->
<g id="edge4" class="edge">
<title>calm_calatheas_model&#45;&gt;calm_calatheas_app</title><style>.edge>path:hover{stroke-width:8}</style>
<path fill="none" stroke="black" d="M125.75,-156.59C125.75,-148.73 125.75,-139.58 125.75,-130.99"/>
<polygon fill="#c04040" stroke="black" points="129.25,-130.91 125.75,-120.91 122.25,-130.91 129.25,-130.91"/>
</g>
<!-- calm_calatheas_settings -->
<g id="node6" class="node">
<title>calm_calatheas_settings</title><style>.edge>path:hover{stroke-width:8}</style>
<ellipse fill="#e72222" stroke="black" cx="125.75" cy="-334.92" rx="67.76" ry="21.43"/>
<text text-anchor="middle" x="125.75" y="-337.92" font-family="Helvetica,sans-Serif" font-size="10.00" fill="#ffffff">calm_calatheas.</text>
<text text-anchor="middle" x="125.75" y="-326.92" font-family="Helvetica,sans-Serif" font-size="10.00" fill="#ffffff">settings</text>
</g>
<!-- calm_calatheas_settings&#45;&gt;calm_calatheas -->
<g id="edge5" class="edge">
<title>calm_calatheas_settings&#45;&gt;calm_calatheas</title><style>.edge>path:hover{stroke-width:8}</style>
<path fill="none" stroke="black" d="M89.25,-316.99C73.78,-307.74 57.37,-294.67 48.75,-277.71 10.46,-202.34 32.48,-97.65 46.25,-49.02"/>
<polygon fill="#e72222" stroke="black" points="49.66,-49.83 49.12,-39.25 42.95,-47.86 49.66,-49.83"/>
</g>
<!-- calm_calatheas_settings&#45;&gt;calm_calatheas___main__ -->
<g id="edge6" class="edge">
<title>calm_calatheas_settings&#45;&gt;calm_calatheas___main__</title><style>.edge>path:hover{stroke-width:8}</style>
<path fill="none" stroke="black" d="M221.75,-177.07C212.37,-134.65 209.65,-84.33 208.92,-52.83"/>
<polygon fill="#e72222" stroke="black" points="212.41,-52.45 208.73,-42.52 205.41,-52.58 212.41,-52.45"/>
</g>
<!-- calm_calatheas_settings&#45;&gt;calm_calatheas_app -->
<g id="edge7" class="edge">
<title>calm_calatheas_settings&#45;&gt;calm_calatheas_app</title><style>.edge>path:hover{stroke-width:8}</style>
<path fill="none" stroke="black" d="M160.42,-316.42C175.69,-306.98 192.46,-293.92 202.75,-277.71 226.66,-240 233.85,-222.04 221.75,-179.07"/>
<path fill="none" stroke="black" d="M221.75,-177.07C216.32,-152.49 195.46,-134.33 174.56,-121.88"/>
<polygon fill="#e72222" stroke="black" points="176.09,-118.73 165.65,-116.9 172.67,-124.84 176.09,-118.73"/>
</g>
<!-- calm_calatheas_settings&#45;&gt;calm_calatheas_logger -->
<g id="edge8" class="edge">
<title>calm_calatheas_settings&#45;&gt;calm_calatheas_logger</title><style>.edge>path:hover{stroke-width:8}</style>
<path fill="none" stroke="black" d="M125.75,-313.44C125.75,-305.58 125.75,-296.44 125.75,-287.84"/>
<polygon fill="#e72222" stroke="black" points="129.25,-287.76 125.75,-277.76 122.25,-287.76 129.25,-287.76"/>
</g>
</g>
</svg>
