<?xml version="1.0" encoding="UTF-8" standalone="no"?>
<!DOCTYPE svg PUBLIC "-//W3C//DTD SVG 1.1//EN"
 "http://www.w3.org/Graphics/SVG/1.1/DTD/svg11.dtd">
<!-- Generated by graphviz version 2.43.0 (0)
 -->
<!-- Title: G Pages: 1 -->
<svg width="597pt" height="904pt"
 viewBox="0.00 0.00 596.71 903.93" xmlns="http://www.w3.org/2000/svg" xmlns:xlink="http://www.w3.org/1999/xlink">
<g id="graph0" class="graph" transform="scale(1 1) rotate(0) translate(4 899.93)">
<title>G</title><style>.edge>path:hover{stroke-width:8}</style>
<polygon fill="white" stroke="transparent" points="-4,4 -4,-899.93 592.71,-899.93 592.71,4 -4,4"/>
<!-- frontend -->
<g id="node1" class="node">
<title>frontend</title><style>.edge>path:hover{stroke-width:8}</style>
<polygon fill="blue" stroke="black" points="251.88,-36 193.88,-36 193.88,0 251.88,0 251.88,-36"/>
<text text-anchor="middle" x="222.88" y="-15.5" font-family="Helvetica,sans-Serif" font-size="10.00" fill="white">frontend</text>
</g>
<!-- frontend_app -->
<g id="node2" class="node">
<title>frontend_app</title><style>.edge>path:hover{stroke-width:8}</style>
<polygon fill="blue" stroke="black" points="262.38,-108 183.38,-108 183.38,-72 262.38,-72 262.38,-108"/>
<text text-anchor="middle" x="222.88" y="-87.5" font-family="Helvetica,sans-Serif" font-size="10.00" fill="white">frontend.app</text>
</g>
<!-- frontend_app&#45;&gt;frontend -->
<g id="edge1" class="edge">
<title>frontend_app&#45;&gt;frontend</title><style>.edge>path:hover{stroke-width:8}</style>
<path fill="none" stroke="black" d="M222.88,-71.7C222.88,-63.98 222.88,-54.71 222.88,-46.11"/>
<polygon fill="blue" stroke="black" points="226.38,-46.1 222.88,-36.1 219.38,-46.1 226.38,-46.1"/>
</g>
<!-- frontend_components -->
<g id="node3" class="node">
<title>frontend_components</title><style>.edge>path:hover{stroke-width:8}</style>
<polygon fill="blue" stroke="black" points="261.38,-180 184.38,-180 184.38,-144 261.38,-144 261.38,-180"/>
<text text-anchor="middle" x="222.88" y="-165" font-family="Helvetica,sans-Serif" font-size="10.00" fill="white">frontend.</text>
<text text-anchor="middle" x="222.88" y="-154" font-family="Helvetica,sans-Serif" font-size="10.00" fill="white">components</text>
</g>
<!-- frontend_components&#45;&gt;frontend_app -->
<g id="edge2" class="edge">
<title>frontend_components&#45;&gt;frontend_app</title><style>.edge>path:hover{stroke-width:8}</style>
<path fill="none" stroke="black" d="M222.88,-143.7C222.88,-135.98 222.88,-126.71 222.88,-118.11"/>
<polygon fill="blue" stroke="black" points="226.38,-118.1 222.88,-108.1 219.38,-118.1 226.38,-118.1"/>
</g>
<!-- frontend_components_camera -->
<g id="node4" class="node">
<title>frontend_components_camera</title><style>.edge>path:hover{stroke-width:8}</style>
<polygon fill="blue" stroke="black" points="553.88,-334 473.88,-334 473.88,-293 553.88,-293 553.88,-334"/>
<text text-anchor="middle" x="513.88" y="-322" font-family="Helvetica,sans-Serif" font-size="10.00" fill="white">frontend.</text>
<text text-anchor="middle" x="513.88" y="-311" font-family="Helvetica,sans-Serif" font-size="10.00" fill="white">components.</text>
<text text-anchor="middle" x="513.88" y="-300" font-family="Helvetica,sans-Serif" font-size="10.00" fill="white">camera</text>
</g>
<!-- frontend_components_footer -->
<g id="node7" class="node">
<title>frontend_components_footer</title><style>.edge>path:hover{stroke-width:8}</style>
<polygon fill="blue" stroke="black" points="549.88,-257 469.88,-257 469.88,-216 549.88,-216 549.88,-257"/>
<text text-anchor="middle" x="509.88" y="-245" font-family="Helvetica,sans-Serif" font-size="10.00" fill="white">frontend.</text>
<text text-anchor="middle" x="509.88" y="-234" font-family="Helvetica,sans-Serif" font-size="10.00" fill="white">components.</text>
<text text-anchor="middle" x="509.88" y="-223" font-family="Helvetica,sans-Serif" font-size="10.00" fill="white">footer</text>
</g>
<!-- frontend_components_camera&#45;&gt;frontend_components_footer -->
<g id="edge3" class="edge">
<title>frontend_components_camera&#45;&gt;frontend_components_footer</title><style>.edge>path:hover{stroke-width:8}</style>
<path fill="none" stroke="black" d="M512.83,-292.79C512.41,-284.96 511.92,-275.77 511.47,-267.16"/>
<polygon fill="blue" stroke="black" points="514.96,-266.87 510.93,-257.07 507.97,-267.25 514.96,-266.87"/>
</g>
<!-- frontend_components_description -->
<g id="node5" class="node">
<title>frontend_components_description</title><style>.edge>path:hover{stroke-width:8}</style>
<polygon fill="blue" stroke="black" points="119.88,-257 39.88,-257 39.88,-216 119.88,-216 119.88,-257"/>
<text text-anchor="middle" x="79.88" y="-245" font-family="Helvetica,sans-Serif" font-size="10.00" fill="white">frontend.</text>
<text text-anchor="middle" x="79.88" y="-234" font-family="Helvetica,sans-Serif" font-size="10.00" fill="white">components.</text>
<text text-anchor="middle" x="79.88" y="-223" font-family="Helvetica,sans-Serif" font-size="10.00" fill="white">description</text>
</g>
<!-- frontend_components_description&#45;&gt;frontend_components -->
<g id="edge4" class="edge">
<title>frontend_components_description&#45;&gt;frontend_components</title><style>.edge>path:hover{stroke-width:8}</style>
<path fill="none" stroke="black" d="M118.58,-215.88C137.58,-206.25 160.51,-194.62 180.04,-184.72"/>
<polygon fill="blue" stroke="black" points="181.69,-187.81 189.02,-180.17 178.52,-181.57 181.69,-187.81"/>
</g>
<!-- frontend_components_description_dropdown -->
<g id="node6" class="node">
<title>frontend_components_description_dropdown</title><style>.edge>path:hover{stroke-width:8}</style>
<polygon fill="blue" stroke="black" points="141.88,-334 17.88,-334 17.88,-293 141.88,-293 141.88,-334"/>
<text text-anchor="middle" x="79.88" y="-322" font-family="Helvetica,sans-Serif" font-size="10.00" fill="white">frontend.</text>
<text text-anchor="middle" x="79.88" y="-311" font-family="Helvetica,sans-Serif" font-size="10.00" fill="white">components.</text>
<text text-anchor="middle" x="79.88" y="-300" font-family="Helvetica,sans-Serif" font-size="10.00" fill="white">description_dropdown</text>
</g>
<!-- frontend_components_description_dropdown&#45;&gt;frontend_components -->
<g id="edge5" class="edge">
<title>frontend_components_description_dropdown&#45;&gt;frontend_components</title><style>.edge>path:hover{stroke-width:8}</style>
<path fill="none" stroke="black" d="M114.45,-292.8C132.49,-279.87 151.51,-261.01 154.88,-237.5"/>
<path fill="none" stroke="black" d="M154.88,-235.5C157.72,-215.75 171.85,-199.06 186.51,-186.68"/>
<polygon fill="blue" stroke="black" points="188.96,-189.21 194.64,-180.26 184.62,-183.72 188.96,-189.21"/>
</g>
<!-- frontend_components_description_dropdown&#45;&gt;frontend_components_description -->
<g id="edge6" class="edge">
<title>frontend_components_description_dropdown&#45;&gt;frontend_components_description</title><style>.edge>path:hover{stroke-width:8}</style>
<path fill="none" stroke="black" d="M79.88,-292.79C79.88,-284.96 79.88,-275.77 79.88,-267.16"/>
<polygon fill="blue" stroke="black" points="83.38,-267.07 79.88,-257.07 76.38,-267.07 83.38,-267.07"/>
</g>
<!-- frontend_components_footer&#45;&gt;frontend_components -->
<g id="edge7" class="edge">
<title>frontend_components_footer&#45;&gt;frontend_components</title><style>.edge>path:hover{stroke-width:8}</style>
<path fill="none" stroke="black" d="M469.68,-225.34C417.68,-212.21 327.21,-189.35 271.44,-175.27"/>
<polygon fill="blue" stroke="black" points="272,-171.8 261.44,-172.74 270.28,-178.58 272,-171.8"/>
</g>
<!-- frontend_components_header -->
<g id="node8" class="node">
<title>frontend_components_header</title><style>.edge>path:hover{stroke-width:8}</style>
<polygon fill="blue" stroke="black" points="262.88,-257 182.88,-257 182.88,-216 262.88,-216 262.88,-257"/>
<text text-anchor="middle" x="222.88" y="-245" font-family="Helvetica,sans-Serif" font-size="10.00" fill="white">frontend.</text>
<text text-anchor="middle" x="222.88" y="-234" font-family="Helvetica,sans-Serif" font-size="10.00" fill="white">components.</text>
<text text-anchor="middle" x="222.88" y="-223" font-family="Helvetica,sans-Serif" font-size="10.00" fill="white">header</text>
</g>
<!-- frontend_components_header&#45;&gt;frontend_components -->
<g id="edge8" class="edge">
<title>frontend_components_header&#45;&gt;frontend_components</title><style>.edge>path:hover{stroke-width:8}</style>
<path fill="none" stroke="black" d="M222.88,-215.69C222.88,-207.91 222.88,-198.84 222.88,-190.45"/>
<polygon fill="blue" stroke="black" points="226.38,-190.32 222.88,-180.32 219.38,-190.32 226.38,-190.32"/>
</g>
<!-- frontend_components_loading_caption_model -->
<g id="node9" class="node">
<title>frontend_components_loading_caption_model</title><style>.edge>path:hover{stroke-width:8}</style>
<polygon fill="blue" stroke="black" points="410.88,-257 280.88,-257 280.88,-216 410.88,-216 410.88,-257"/>
<text text-anchor="middle" x="345.88" y="-245" font-family="Helvetica,sans-Serif" font-size="10.00" fill="white">frontend.</text>
<text text-anchor="middle" x="345.88" y="-234" font-family="Helvetica,sans-Serif" font-size="10.00" fill="white">components.</text>
<text text-anchor="middle" x="345.88" y="-223" font-family="Helvetica,sans-Serif" font-size="10.00" fill="white">loading_caption_model</text>
</g>
<!-- frontend_components_loading_caption_model&#45;&gt;frontend_components -->
<g id="edge9" class="edge">
<title>frontend_components_loading_caption_model&#45;&gt;frontend_components</title><style>.edge>path:hover{stroke-width:8}</style>
<path fill="none" stroke="black" d="M312.6,-215.88C296.63,-206.47 277.42,-195.15 260.88,-185.4"/>
<polygon fill="blue" stroke="black" points="262.4,-182.23 252.01,-180.17 258.84,-188.26 262.4,-182.23"/>
</g>
<!-- frontend_components_pokemon -->
<g id="node10" class="node">
<title>frontend_components_pokemon</title><style>.edge>path:hover{stroke-width:8}</style>
<polygon fill="blue" stroke="black" points="239.88,-334 159.88,-334 159.88,-293 239.88,-293 239.88,-334"/>
<text text-anchor="middle" x="199.88" y="-322" font-family="Helvetica,sans-Serif" font-size="10.00" fill="white">frontend.</text>
<text text-anchor="middle" x="199.88" y="-311" font-family="Helvetica,sans-Serif" font-size="10.00" fill="white">components.</text>
<text text-anchor="middle" x="199.88" y="-300" font-family="Helvetica,sans-Serif" font-size="10.00" fill="white">pokemon</text>
</g>
<!-- frontend_components_pokemon&#45;&gt;frontend_components -->
<g id="edge10" class="edge">
<title>frontend_components_pokemon&#45;&gt;frontend_components</title><style>.edge>path:hover{stroke-width:8}</style>
<path fill="none" stroke="black" d="M178.4,-292.91C165.41,-278.71 151.89,-258.39 154.88,-237.5"/>
</g>
<!-- frontend_components_theme -->
<g id="node11" class="node">
<title>frontend_components_theme</title><style>.edge>path:hover{stroke-width:8}</style>
<polygon fill="blue" stroke="black" points="337.88,-334 257.88,-334 257.88,-293 337.88,-293 337.88,-334"/>
<text text-anchor="middle" x="297.88" y="-322" font-family="Helvetica,sans-Serif" font-size="10.00" fill="white">frontend.</text>
<text text-anchor="middle" x="297.88" y="-311" font-family="Helvetica,sans-Serif" font-size="10.00" fill="white">components.</text>
<text text-anchor="middle" x="297.88" y="-300" font-family="Helvetica,sans-Serif" font-size="10.00" fill="white">theme</text>
</g>
<!-- frontend_components_theme&#45;&gt;frontend_components -->
<g id="edge11" class="edge">
<title>frontend_components_theme&#45;&gt;frontend_components</title><style>.edge>path:hover{stroke-width:8}</style>
<path fill="none" stroke="black" d="M257.63,-296.41C227.14,-283.87 188.14,-266.96 173.88,-257 163.96,-250.07 153.17,-249.48 154.88,-237.5"/>
</g>
<!-- frontend_components_theme&#45;&gt;frontend_components_header -->
<g id="edge12" class="edge">
<title>frontend_components_theme&#45;&gt;frontend_components_header</title><style>.edge>path:hover{stroke-width:8}</style>
<path fill="none" stroke="black" d="M278.18,-292.79C269.48,-284.1 259.12,-273.73 249.73,-264.35"/>
<polygon fill="blue" stroke="black" points="252,-261.67 242.46,-257.07 247.05,-266.62 252,-261.67"/>
</g>
<!-- frontend_models -->
<g id="node12" class="node">
<title>frontend_models</title><style>.edge>path:hover{stroke-width:8}</style>
<ellipse fill="#f90606" stroke="black" cx="162.88" cy="-772.96" rx="43.27" ry="21.43"/>
<text text-anchor="middle" x="162.88" y="-775.96" font-family="Helvetica,sans-Serif" font-size="10.00" fill="#ffffff">frontend.</text>
<text text-anchor="middle" x="162.88" y="-764.96" font-family="Helvetica,sans-Serif" font-size="10.00" fill="#ffffff">models</text>
</g>
<!-- frontend_models&#45;&gt;frontend_components_description -->
<g id="edge13" class="edge">
<title>frontend_models&#45;&gt;frontend_components_description</title><style>.edge>path:hover{stroke-width:8}</style>
<path fill="none" stroke="black" d="M158.11,-751.85C154.56,-732.45 152.02,-702.75 162.88,-679.97"/>
<path fill="none" stroke="black" d="M162.88,-677.97C178.87,-644.49 161.05,-631.54 162.88,-594.48"/>
<path fill="none" stroke="black" d="M162.88,-592.48C164.78,-554.27 153.35,-545.49 141.88,-508.99"/>
<path fill="none" stroke="black" d="M141.88,-506.99C130.01,-469.21 106.27,-472.53 79.88,-443 73.36,-435.7 72,-433.64 65.88,-426"/>
<path fill="none" stroke="black" d="M65.88,-424C26.2,-374.44 -18.94,-350.07 8.88,-293 14.56,-281.35 24.01,-271.43 34.18,-263.33"/>
<polygon fill="#f90606" stroke="black" points="36.47,-265.99 42.43,-257.24 32.31,-260.36 36.47,-265.99"/>
</g>
<!-- frontend_models&#45;&gt;frontend_components_description_dropdown -->
<g id="edge14" class="edge">
<title>frontend_models&#45;&gt;frontend_components_description_dropdown</title><style>.edge>path:hover{stroke-width:8}</style>
<path fill="none" stroke="black" d="M65.88,-424C51.16,-405.61 72.47,-393.62 65.88,-371"/>
<path fill="none" stroke="black" d="M65.88,-370C63.41,-361.5 64.35,-352.19 66.63,-343.66"/>
<polygon fill="#f90606" stroke="black" points="69.98,-344.71 69.81,-334.11 63.33,-342.5 69.98,-344.71"/>
</g>
<!-- frontend_models&#45;&gt;frontend_components_pokemon -->
<g id="edge15" class="edge">
<title>frontend_models&#45;&gt;frontend_components_pokemon</title><style>.edge>path:hover{stroke-width:8}</style>
<path fill="none" stroke="black" d="M141.88,-506.99C121.24,-447.73 159.17,-430.24 179.88,-371"/>
<path fill="none" stroke="black" d="M179.88,-370C182.44,-361.31 185.61,-352.01 188.67,-343.55"/>
<polygon fill="#f90606" stroke="black" points="191.99,-344.68 192.17,-334.09 185.42,-342.25 191.99,-344.68"/>
</g>
<!-- frontend_services_database -->
<g id="node17" class="node">
<title>frontend_services_database</title><style>.edge>path:hover{stroke-width:8}</style>
<polygon fill="blue" stroke="black" points="290.88,-613.98 228.88,-613.98 228.88,-572.98 290.88,-572.98 290.88,-613.98"/>
<text text-anchor="middle" x="259.88" y="-601.98" font-family="Helvetica,sans-Serif" font-size="10.00" fill="white">frontend.</text>
<text text-anchor="middle" x="259.88" y="-590.98" font-family="Helvetica,sans-Serif" font-size="10.00" fill="white">services.</text>
<text text-anchor="middle" x="259.88" y="-579.98" font-family="Helvetica,sans-Serif" font-size="10.00" fill="white">database</text>
</g>
<!-- frontend_models&#45;&gt;frontend_services_database -->
<g id="edge16" class="edge">
<title>frontend_models&#45;&gt;frontend_services_database</title><style>.edge>path:hover{stroke-width:8}</style>
<path fill="none" stroke="black" d="M162.88,-677.97C175.08,-652.42 199.17,-631.62 220.29,-617.17"/>
<polygon fill="#f90606" stroke="black" points="222.38,-619.98 228.82,-611.56 218.54,-614.13 222.38,-619.98"/>
</g>
<!-- frontend_services_description -->
<g id="node18" class="node">
<title>frontend_services_description</title><style>.edge>path:hover{stroke-width:8}</style>
<polygon fill="blue" stroke="black" points="418.38,-613.98 347.38,-613.98 347.38,-572.98 418.38,-572.98 418.38,-613.98"/>
<text text-anchor="middle" x="382.88" y="-601.98" font-family="Helvetica,sans-Serif" font-size="10.00" fill="white">frontend.</text>
<text text-anchor="middle" x="382.88" y="-590.98" font-family="Helvetica,sans-Serif" font-size="10.00" fill="white">services.</text>
<text text-anchor="middle" x="382.88" y="-579.98" font-family="Helvetica,sans-Serif" font-size="10.00" fill="white">description</text>
</g>
<!-- frontend_models&#45;&gt;frontend_services_description -->
<g id="edge17" class="edge">
<title>frontend_models&#45;&gt;frontend_services_description</title><style>.edge>path:hover{stroke-width:8}</style>
<path fill="none" stroke="black" d="M162.88,-677.97C170.78,-661.44 275.65,-627.08 337.7,-607.99"/>
<polygon fill="#f90606" stroke="black" points="338.73,-611.34 347.27,-605.07 336.69,-604.64 338.73,-611.34"/>
</g>
<!-- frontend_services_pokemon -->
<g id="node19" class="node">
<title>frontend_services_pokemon</title><style>.edge>path:hover{stroke-width:8}</style>
<polygon fill="blue" stroke="black" points="231.88,-528.49 169.88,-528.49 169.88,-487.49 231.88,-487.49 231.88,-528.49"/>
<text text-anchor="middle" x="200.88" y="-516.49" font-family="Helvetica,sans-Serif" font-size="10.00" fill="white">frontend.</text>
<text text-anchor="middle" x="200.88" y="-505.49" font-family="Helvetica,sans-Serif" font-size="10.00" fill="white">services.</text>
<text text-anchor="middle" x="200.88" y="-494.49" font-family="Helvetica,sans-Serif" font-size="10.00" fill="white">pokemon</text>
</g>
<!-- frontend_models&#45;&gt;frontend_services_pokemon -->
<g id="edge18" class="edge">
<title>frontend_models&#45;&gt;frontend_services_pokemon</title><style>.edge>path:hover{stroke-width:8}</style>
<path fill="none" stroke="black" d="M162.88,-592.48C163.85,-572.94 172.65,-552.92 181.53,-537.38"/>
<polygon fill="#f90606" stroke="black" points="184.54,-539.16 186.71,-528.79 178.55,-535.55 184.54,-539.16"/>
</g>
<!-- frontend_models_pokemon_description -->
<g id="node13" class="node">
<title>frontend_models_pokemon_description</title><style>.edge>path:hover{stroke-width:8}</style>
<ellipse fill="#c24747" stroke="black" cx="162.88" cy="-866.94" rx="85.62" ry="28.98"/>
<text text-anchor="middle" x="162.88" y="-875.44" font-family="Helvetica,sans-Serif" font-size="10.00" fill="#ffffff">frontend.</text>
<text text-anchor="middle" x="162.88" y="-864.44" font-family="Helvetica,sans-Serif" font-size="10.00" fill="#ffffff">models.</text>
<text text-anchor="middle" x="162.88" y="-853.44" font-family="Helvetica,sans-Serif" font-size="10.00" fill="#ffffff">pokemon_description</text>
</g>
<!-- frontend_models_pokemon_description&#45;&gt;frontend_models -->
<g id="edge19" class="edge">
<title>frontend_models_pokemon_description&#45;&gt;frontend_models</title><style>.edge>path:hover{stroke-width:8}</style>
<path fill="none" stroke="black" d="M162.88,-837.84C162.88,-827.3 162.88,-815.28 162.88,-804.52"/>
<polygon fill="#c24747" stroke="black" points="166.38,-804.3 162.88,-794.3 159.38,-804.3 166.38,-804.3"/>
</g>
<!-- frontend_services -->
<g id="node14" class="node">
<title>frontend_services</title><style>.edge>path:hover{stroke-width:8}</style>
<polygon fill="blue" stroke="black" points="394.38,-443 333.38,-443 333.38,-407 394.38,-407 394.38,-443"/>
<text text-anchor="middle" x="363.88" y="-428" font-family="Helvetica,sans-Serif" font-size="10.00" fill="white">frontend.</text>
<text text-anchor="middle" x="363.88" y="-417" font-family="Helvetica,sans-Serif" font-size="10.00" fill="white">services</text>
</g>
<!-- frontend_services&#45;&gt;frontend_app -->
<g id="edge20" class="edge">
<title>frontend_services&#45;&gt;frontend_app</title><style>.edge>path:hover{stroke-width:8}</style>
<path fill="none" stroke="black" d="M369.88,-312.5C374.59,-279.63 407.98,-287.99 419.88,-257 426.42,-239.99 428.66,-231.97 419.88,-216 388.66,-159.22 319.53,-124.59 272.06,-106.6"/>
<polygon fill="blue" stroke="black" points="273.17,-103.28 262.58,-103.12 270.76,-109.85 273.17,-103.28"/>
</g>
<!-- frontend_services&#45;&gt;frontend_components_camera -->
<g id="edge21" class="edge">
<title>frontend_services&#45;&gt;frontend_components_camera</title><style>.edge>path:hover{stroke-width:8}</style>
<path fill="none" stroke="black" d="M394.64,-421.01C444.32,-415.32 537.36,-400.75 543.88,-371"/>
<path fill="none" stroke="black" d="M543.88,-370C545.93,-360.65 543.09,-351.22 538.45,-342.85"/>
<polygon fill="blue" stroke="black" points="541.24,-340.72 532.86,-334.23 535.37,-344.53 541.24,-340.72"/>
</g>
<!-- frontend_services&#45;&gt;frontend_components_description_dropdown -->
<g id="edge22" class="edge">
<title>frontend_services&#45;&gt;frontend_components_description_dropdown</title><style>.edge>path:hover{stroke-width:8}</style>
<path fill="none" stroke="black" d="M333.22,-412.18C287.23,-394.45 199.48,-360.61 140.32,-337.8"/>
<polygon fill="blue" stroke="black" points="141.3,-334.43 130.72,-334.1 138.79,-340.96 141.3,-334.43"/>
</g>
<!-- frontend_services&#45;&gt;frontend_components_footer -->
<g id="edge23" class="edge">
<title>frontend_services&#45;&gt;frontend_components_footer</title><style>.edge>path:hover{stroke-width:8}</style>
<path fill="none" stroke="black" d="M369.88,-370C365.32,-355.77 396.59,-324.29 407.88,-314.5"/>
</g>
<!-- frontend_services&#45;&gt;frontend_components_loading_caption_model -->
<g id="edge24" class="edge">
<title>frontend_services&#45;&gt;frontend_components_loading_caption_model</title><style>.edge>path:hover{stroke-width:8}</style>
<path fill="none" stroke="black" d="M369.88,-370C362.36,-346.51 366.39,-338.92 369.88,-314.5"/>
<path fill="none" stroke="black" d="M369.88,-312.5C372.11,-296.93 367.49,-280.2 361.72,-266.5"/>
<polygon fill="blue" stroke="black" points="364.77,-264.75 357.4,-257.13 358.41,-267.67 364.77,-264.75"/>
</g>
<!-- frontend_services&#45;&gt;frontend_components_pokemon -->
<g id="edge25" class="edge">
<title>frontend_services&#45;&gt;frontend_components_pokemon</title><style>.edge>path:hover{stroke-width:8}</style>
<path fill="none" stroke="black" d="M369.37,-406.93C371.9,-396.37 373.61,-382.64 369.88,-371"/>
<path fill="none" stroke="black" d="M369.88,-370C353.66,-319.39 307.16,-348.86 249.6,-333.72"/>
<polygon fill="blue" stroke="black" points="250.47,-330.33 239.89,-330.76 248.43,-337.02 250.47,-330.33"/>
</g>
<!-- frontend_services&#45;&gt;frontend_components_theme -->
<g id="edge26" class="edge">
<title>frontend_services&#45;&gt;frontend_components_theme</title><style>.edge>path:hover{stroke-width:8}</style>
<path fill="none" stroke="black" d="M369.88,-370C365.85,-357.42 356.77,-347.14 346.36,-338.99"/>
<polygon fill="blue" stroke="black" points="348.38,-336.13 338.2,-333.18 344.31,-341.83 348.38,-336.13"/>
</g>
<!-- frontend_services_camera -->
<g id="node15" class="node">
<title>frontend_services_camera</title><style>.edge>path:hover{stroke-width:8}</style>
<ellipse fill="#c24747" stroke="black" cx="434.88" cy="-507.99" rx="43.27" ry="28.98"/>
<text text-anchor="middle" x="434.88" y="-516.49" font-family="Helvetica,sans-Serif" font-size="10.00" fill="#ffffff">frontend.</text>
<text text-anchor="middle" x="434.88" y="-505.49" font-family="Helvetica,sans-Serif" font-size="10.00" fill="#ffffff">services.</text>
<text text-anchor="middle" x="434.88" y="-494.49" font-family="Helvetica,sans-Serif" font-size="10.00" fill="#ffffff">camera</text>
</g>
<!-- frontend_services_camera&#45;&gt;frontend_services -->
<g id="edge27" class="edge">
<title>frontend_services_camera&#45;&gt;frontend_services</title><style>.edge>path:hover{stroke-width:8}</style>
<path fill="none" stroke="black" d="M413.58,-482.69C404.81,-472.69 394.66,-461.11 385.83,-451.04"/>
<polygon fill="#c24747" stroke="black" points="388.31,-448.55 379.08,-443.34 383.04,-453.16 388.31,-448.55"/>
</g>
<!-- frontend_services_caption -->
<g id="node16" class="node">
<title>frontend_services_caption</title><style>.edge>path:hover{stroke-width:8}</style>
<ellipse fill="#f30c0c" stroke="black" cx="382.88" cy="-678.97" rx="43.27" ry="28.98"/>
<text text-anchor="middle" x="382.88" y="-687.47" font-family="Helvetica,sans-Serif" font-size="10.00" fill="#ffffff">frontend.</text>
<text text-anchor="middle" x="382.88" y="-676.47" font-family="Helvetica,sans-Serif" font-size="10.00" fill="#ffffff">services.</text>
<text text-anchor="middle" x="382.88" y="-665.47" font-family="Helvetica,sans-Serif" font-size="10.00" fill="#ffffff">caption</text>
</g>
<!-- frontend_services_caption&#45;&gt;frontend_components_footer -->
<g id="edge28" class="edge">
<title>frontend_services_caption&#45;&gt;frontend_components_footer</title><style>.edge>path:hover{stroke-width:8}</style>
<path fill="none" stroke="black" d="M543.88,-424C541.26,-395.13 577.04,-399.58 581.88,-371"/>
<path fill="none" stroke="black" d="M581.88,-370C587.77,-335.25 579.85,-323.9 562.88,-293 557.18,-282.61 549.04,-272.74 540.85,-264.29"/>
<polygon fill="#f30c0c" stroke="black" points="543.28,-261.76 533.7,-257.24 538.36,-266.75 543.28,-261.76"/>
</g>
<!-- frontend_services_caption&#45;&gt;frontend_components_loading_caption_model -->
<g id="edge29" class="edge">
<title>frontend_services_caption&#45;&gt;frontend_components_loading_caption_model</title><style>.edge>path:hover{stroke-width:8}</style>
<path fill="none" stroke="black" d="M424.19,-669.92C455.62,-661.52 497.21,-645.05 519.88,-613.98 569.53,-545.95 555.16,-509.47 543.88,-426"/>
<path fill="none" stroke="black" d="M543.88,-424C539.68,-401.94 432.39,-309.68 377.54,-263.73"/>
<polygon fill="#f30c0c" stroke="black" points="379.45,-260.77 369.53,-257.04 374.96,-266.14 379.45,-260.77"/>
</g>
<!-- frontend_services_caption&#45;&gt;frontend_services -->
<g id="edge30" class="edge">
<title>frontend_services_caption&#45;&gt;frontend_services</title><style>.edge>path:hover{stroke-width:8}</style>
<path fill="none" stroke="black" d="M421.64,-666.2C453.01,-654.11 493.89,-631.7 505.88,-594.48"/>
<path fill="none" stroke="black" d="M505.88,-592.48C521.57,-543.81 518.44,-519.24 486.88,-479 466.76,-453.33 431.76,-439.88 404.23,-432.96"/>
<polygon fill="#f30c0c" stroke="black" points="405,-429.55 394.46,-430.7 403.42,-436.37 405,-429.55"/>
</g>
<!-- frontend_services_caption&#45;&gt;frontend_services_description -->
<g id="edge31" class="edge">
<title>frontend_services_caption&#45;&gt;frontend_services_description</title><style>.edge>path:hover{stroke-width:8}</style>
<path fill="none" stroke="black" d="M382.88,-649.71C382.88,-641.46 382.88,-632.42 382.88,-624.09"/>
<polygon fill="#f30c0c" stroke="black" points="386.38,-624.03 382.88,-614.03 379.38,-624.03 386.38,-624.03"/>
</g>
<!-- frontend_services_caption&#45;&gt;frontend_services_pokemon -->
<g id="edge32" class="edge">
<title>frontend_services_caption&#45;&gt;frontend_services_pokemon</title><style>.edge>path:hover{stroke-width:8}</style>
<path fill="none" stroke="black" d="M364.32,-652.42C344.57,-625.63 314.23,-585.69 299.88,-572.98 276.89,-552.62 266.59,-553.8 240.88,-536.98 239.47,-536.06 238.03,-535.11 236.59,-534.14"/>
<polygon fill="#f30c0c" stroke="black" points="238.51,-531.22 228.27,-528.49 234.58,-537.01 238.51,-531.22"/>
</g>
<!-- frontend_services_database&#45;&gt;frontend_services -->
<g id="edge33" class="edge">
<title>frontend_services_database&#45;&gt;frontend_services</title><style>.edge>path:hover{stroke-width:8}</style>
<path fill="none" stroke="black" d="M291.05,-580.44C318.58,-567.62 355.6,-544.27 363.88,-508.99"/>
<path fill="none" stroke="black" d="M363.88,-506.99C368.01,-489.42 368,-469.1 366.96,-453.22"/>
<polygon fill="blue" stroke="black" points="370.43,-452.69 366.12,-443.01 363.45,-453.27 370.43,-452.69"/>
</g>
<!-- frontend_services_database&#45;&gt;frontend_services_pokemon -->
<g id="edge34" class="edge">
<title>frontend_services_database&#45;&gt;frontend_services_pokemon</title><style>.edge>path:hover{stroke-width:8}</style>
<path fill="none" stroke="black" d="M245.9,-572.7C238.33,-561.99 228.86,-548.58 220.56,-536.83"/>
<polygon fill="blue" stroke="black" points="223.39,-534.78 214.77,-528.64 217.68,-538.82 223.39,-534.78"/>
</g>
<!-- frontend_services_description&#45;&gt;frontend_services -->
<g id="edge35" class="edge">
<title>frontend_services_description&#45;&gt;frontend_services</title><style>.edge>path:hover{stroke-width:8}</style>
<path fill="none" stroke="black" d="M373.33,-572.9C366.28,-555.97 358.75,-530.84 363.88,-508.99"/>
</g>
<!-- frontend_services_description&#45;&gt;frontend_services_pokemon -->
<g id="edge36" class="edge">
<title>frontend_services_description&#45;&gt;frontend_services_pokemon</title><style>.edge>path:hover{stroke-width:8}</style>
<path fill="none" stroke="black" d="M347.25,-578.59C305.4,-562.26 241.51,-537.32 240.88,-536.98 239.15,-536.05 237.39,-535.06 235.65,-534.03"/>
<polygon fill="blue" stroke="black" points="237.33,-530.95 227,-528.58 233.6,-536.87 237.33,-530.95"/>
</g>
<!-- frontend_services_pokemon&#45;&gt;frontend_app -->
<g id="edge37" class="edge">
<title>frontend_services_pokemon&#45;&gt;frontend_app</title><style>.edge>path:hover{stroke-width:8}</style>
<path fill="none" stroke="black" d="M176.8,-487.19C127.28,-446.21 17.89,-354.24 8.88,-334 1.47,-317.35 6.36,-311.05 8.88,-293 13.82,-257.75 9.74,-244.63 30.88,-216 67.53,-166.36 130.26,-130.99 174.01,-110.81"/>
<polygon fill="blue" stroke="black" points="175.64,-113.92 183.31,-106.62 172.76,-107.54 175.64,-113.92"/>
</g>
<!-- frontend_services_pokemon&#45;&gt;frontend_components_description_dropdown -->
<g id="edge38" class="edge">
<title>frontend_services_pokemon&#45;&gt;frontend_components_description_dropdown</title><style>.edge>path:hover{stroke-width:8}</style>
<path fill="none" stroke="black" d="M192.97,-487.39C187.13,-471.21 180.16,-447.5 179.88,-426"/>
<path fill="none" stroke="black" d="M179.88,-424C179.18,-368.13 81.51,-424.64 65.88,-371"/>
</g>
<!-- frontend_services_pokemon&#45;&gt;frontend_components_footer -->
<g id="edge39" class="edge">
<title>frontend_services_pokemon&#45;&gt;frontend_components_footer</title><style>.edge>path:hover{stroke-width:8}</style>
<path fill="none" stroke="black" d="M179.88,-424C178.63,-324.91 299.34,-385.7 383.88,-334 395.61,-326.83 397.5,-323.5 407.88,-314.5"/>
<path fill="none" stroke="black" d="M407.88,-312.5C432.2,-297.7 458.02,-278.68 477.59,-263.5"/>
<polygon fill="blue" stroke="black" points="479.86,-266.17 485.58,-257.25 475.55,-260.66 479.86,-266.17"/>
</g>
<!-- frontend_services_pokemon&#45;&gt;frontend_components_pokemon -->
<g id="edge40" class="edge">
<title>frontend_services_pokemon&#45;&gt;frontend_components_pokemon</title><style>.edge>path:hover{stroke-width:8}</style>
<path fill="none" stroke="black" d="M179.88,-424C179.59,-400.45 172.11,-393.23 179.88,-371"/>
</g>
<!-- frontend_services_pokemon&#45;&gt;frontend_services -->
<g id="edge41" class="edge">
<title>frontend_services_pokemon&#45;&gt;frontend_services</title><style>.edge>path:hover{stroke-width:8}</style>
<path fill="none" stroke="black" d="M227.51,-487.25C231.89,-484.33 236.44,-481.48 240.88,-479 267.6,-464.1 299.33,-450.52 323.88,-440.84"/>
<polygon fill="blue" stroke="black" points="325.19,-444.08 333.24,-437.19 322.65,-437.56 325.19,-444.08"/>
</g>
<!-- frontend_services_reader -->
<g id="node20" class="node">
<title>frontend_services_reader</title><style>.edge>path:hover{stroke-width:8}</style>
<ellipse fill="#f31616" stroke="black" cx="382.88" cy="-772.96" rx="43.27" ry="28.98"/>
<text text-anchor="middle" x="382.88" y="-781.46" font-family="Helvetica,sans-Serif" font-size="10.00" fill="#ffffff">frontend.</text>
<text text-anchor="middle" x="382.88" y="-770.46" font-family="Helvetica,sans-Serif" font-size="10.00" fill="#ffffff">services.</text>
<text text-anchor="middle" x="382.88" y="-759.46" font-family="Helvetica,sans-Serif" font-size="10.00" fill="#ffffff">reader</text>
</g>
<!-- frontend_services_reader&#45;&gt;frontend_components_camera -->
<g id="edge42" class="edge">
<title>frontend_services_reader&#45;&gt;frontend_components_camera</title><style>.edge>path:hover{stroke-width:8}</style>
<path fill="none" stroke="black" d="M505.88,-677.97C578.37,-586.17 601.41,-541.33 581.88,-426"/>
<path fill="none" stroke="black" d="M581.88,-424C576.36,-395.55 537.68,-399.31 543.88,-371"/>
</g>
<!-- frontend_services_reader&#45;&gt;frontend_components_footer -->
<g id="edge43" class="edge">
<title>frontend_services_reader&#45;&gt;frontend_components_footer</title><style>.edge>path:hover{stroke-width:8}</style>
<path fill="none" stroke="black" d="M581.88,-424C577.39,-400.88 579.98,-394.48 581.88,-371"/>
</g>
<!-- frontend_services_reader&#45;&gt;frontend_services -->
<g id="edge44" class="edge">
<title>frontend_services_reader&#45;&gt;frontend_services</title><style>.edge>path:hover{stroke-width:8}</style>
<path fill="none" stroke="black" d="M415.66,-754.02C442.88,-737.73 481.02,-711.47 505.88,-679.97"/>
<path fill="none" stroke="black" d="M505.88,-677.97C528.88,-648.85 495.74,-630.18 505.88,-594.48"/>
</g>
<!-- frontend_services_reader&#45;&gt;frontend_services_caption -->
<g id="edge45" class="edge">
<title>frontend_services_reader&#45;&gt;frontend_services_caption</title><style>.edge>path:hover{stroke-width:8}</style>
<path fill="none" stroke="black" d="M382.88,-743.86C382.88,-735.82 382.88,-726.92 382.88,-718.38"/>
<polygon fill="#f31616" stroke="black" points="386.38,-718.22 382.88,-708.22 379.38,-718.22 386.38,-718.22"/>
</g>
<!-- frontend_services_reader&#45;&gt;frontend_services_pokemon -->
<g id="edge46" class="edge">
<title>frontend_services_reader&#45;&gt;frontend_services_pokemon</title><style>.edge>path:hover{stroke-width:8}</style>
<path fill="none" stroke="black" d="M352.71,-751.88C315.13,-725.13 251.97,-674.14 219.88,-613.98 207.45,-590.67 202.97,-560.73 201.44,-538.8"/>
<polygon fill="#f31616" stroke="black" points="204.94,-538.54 200.91,-528.74 197.95,-538.91 204.94,-538.54"/>
</g>
<!-- frontend_services_theme -->
<g id="node21" class="node">
<title>frontend_services_theme</title><style>.edge>path:hover{stroke-width:8}</style>
<ellipse fill="#ce3b3b" stroke="black" cx="292.88" cy="-507.99" rx="43.27" ry="28.98"/>
<text text-anchor="middle" x="292.88" y="-516.49" font-family="Helvetica,sans-Serif" font-size="10.00" fill="#ffffff">frontend.</text>
<text text-anchor="middle" x="292.88" y="-505.49" font-family="Helvetica,sans-Serif" font-size="10.00" fill="#ffffff">services.</text>
<text text-anchor="middle" x="292.88" y="-494.49" font-family="Helvetica,sans-Serif" font-size="10.00" fill="#ffffff">theme</text>
</g>
<!-- frontend_services_theme&#45;&gt;frontend_components_theme -->
<g id="edge47" class="edge">
<title>frontend_services_theme&#45;&gt;frontend_components_theme</title><style>.edge>path:hover{stroke-width:8}</style>
<path fill="none" stroke="black" d="M293.61,-479C294.54,-443.03 296.16,-380.86 297.11,-344.12"/>
<polygon fill="#ce3b3b" stroke="black" points="300.62,-344.12 297.38,-334.03 293.62,-343.94 300.62,-344.12"/>
</g>
<!-- frontend_services_theme&#45;&gt;frontend_services -->
<g id="edge48" class="edge">
<title>frontend_services_theme&#45;&gt;frontend_services</title><style>.edge>path:hover{stroke-width:8}</style>
<path fill="none" stroke="black" d="M314.19,-482.69C322.95,-472.69 333.1,-461.11 341.94,-451.04"/>
<polygon fill="#ce3b3b" stroke="black" points="344.72,-453.16 348.69,-443.34 339.46,-448.55 344.72,-453.16"/>
</g>
</g>
</svg>
